HIERARCHY
ROOT Hips
{
	OFFSET 0.00000 0.00000 0.00000
	CHANNELS 6 Xposition Yposition Zposition Yrotation Zrotation Xrotation 
	JOINT Lumbar
	{
		OFFSET 0 0 0
		CHANNELS 3 Zrotation Xrotation Yrotation
		JOINT Neck
		{
			OFFSET 0.00 0.2701 0.00
			CHANNELS 3 Zrotation Xrotation Yrotation
			End Site
			{
				OFFSET 0.00 0.1379 0.00
			}
		}
		JOINT RightShoulder
		{
			OFFSET 0.0119 0.2289 0.1181
			CHANNELS 3 Zrotation Xrotation Yrotation
			JOINT RightElbow
			{
				OFFSET 0.00 -0.1475 0.00
				CHANNELS 2 Zrotation Yrotation
				JOINT RightWrist
				{
					OFFSET 0.00 -0.1605 0.00
					CHANNELS 2 Zrotation Xrotation
					End Site
					{
						OFFSET 0.0040 -0.1068 0.0006
					}
				}
			}
		}
		JOINT LeftShoulder
		{
			OFFSET 0.0119 0.2289 -0.1181
			CHANNELS 3 Zrotation Xrotation Yrotation
			JOINT LeftElbow
			{
				OFFSET 0.00 -0.1475 0.00
				CHANNELS 2 Zrotation Yrotation
				JOINT LeftWrist
				{
					OFFSET 0.00 -0.1605 0.00
					CHANNELS 2 Zrotation Xrotation
					End Site
					{
						OFFSET 0.0040 -0.1068 -0.0006
					}
				}
			}
		}
	}
	JOINT RightHip
	{
		OFFSET 0.0316 -0.0424 0.0458
		CHANNELS 3 Zrotation Xrotation Yrotation
		JOINT RightKnee
		{
			OFFSET 0.00 -0.2438 0.00
			CHANNELS 1 Zrotation
			JOINT RightAnkle
			{
				OFFSET 0.00 -0.2449 0.00
				CHANNELS 3 Zrotation Xrotation Yrotation
				End Site
				{
					OFFSET 0.1237 -0.0542 0.0051
				}
			}
		}
	}
	JOINT LeftHip
	{
		OFFSET 0.0316 -0.0424 -0.0458
		CHANNELS 3 Zrotation Xrotation Yrotation
		JOINT LeftKnee
		{
			OFFSET 0.00 -0.2438 0.00
			CHANNELS 1 Zrotation
			JOINT LeftAnkle
			{
				OFFSET 0.00 -0.2449 0.00
				CHANNELS 3 Zrotation Xrotation Yrotation
				End Site
				{
					OFFSET 0.1237 -0.0542 -0.0051
				}
			}
		}
	}
}
MOTION
Frames: 11
Frame Time: 0.02
-0 0.57926 -0 173.85215 0 -4.14593 6.09173 4.43908 0.2448 -26.54195 0.81291 2.99255 12.81071 -65.10606 -76.32429 22.01031 65.44915 -26.32711 -0.86093 19.97449 65.20368 67.99981 20.14192 -72.0319 -20.67855 2.2208 -1.19741 8.75074 -2.82156 -9.21305 2.86747 -4.60071 -15.25419 -2.43108 1.06012 7.07375 -5.79778 6.31519 5.20395 8.81212
5e-05 0.57922 0.00025 173.94778 0 -4.15732 6.15509 4.41851 0.27465 -26.78509 0.72427 2.93314 12.99901 -64.79663 -76.45862 21.84002 65.91767 -26.13065 -0.86183 20.13543 65.14468 67.859 20.60445 -71.67368 -20.37846 1.98055 -1.15087 8.744 -2.88919 -9.29811 2.93767 -4.5397 -15.27098 -2.41021 1.05052 7.00507 -5.80994 6.33965 5.21307 8.80589
9e-05 0.57917 0.0005 174.04303 0 -4.16875 6.21809 4.39808 0.30422 -27.027 0.63631 2.87413 13.18748 -64.48907 -76.59138 21.67064 66.38332 -25.93517 -0.86274 20.29853 65.08602 67.71587 21.06288 -71.31978 -20.08043 1.74255 -1.1045 8.73688 -2.9614 -9.38281 3.00754 -4.47946 -15.28256 -2.38935 1.041 6.93678 -5.82204 6.36397 5.22212 8.79964
0.00014 0.57912 0.00075 174.13791 0 -4.18011 6.28044 4.3778 0.3332 -27.26686 0.5497 2.81599 13.37817 -64.18525 -76.72062 21.50256 66.84095 -25.74235 -0.8636 20.47234 65.02901 67.5608 21.50964 -70.97872 -19.78696 1.51094 -1.05787 8.72764 -3.05638 -9.46797 3.07743 -4.42231 -15.2708 -2.36828 1.03146 6.86902 -5.83426 6.38807 5.23101 8.79323
0.00018 0.57907 0.001 174.23505 0 -4.19143 6.34647 4.35645 0.3656 -27.51815 0.45532 2.75303 13.55673 -63.86074 -76.87031 21.32678 67.33962 -25.53624 -0.86459 20.59001 64.96436 67.46745 22.01849 -70.56838 -19.46841 1.24514 -1.01206 8.72901 -3.03528 -9.55199 3.148 -4.34953 -15.37954 -2.34824 1.02174 6.79806 -5.84618 6.41347 5.24076 8.78765
0.00024 0.57903 0.00125 174.32709 0 -4.20308 6.40446 4.33755 0.39055 -27.74463 0.37791 2.70051 13.76101 -63.5809 -76.97537 21.16803 67.75197 -25.35791 -0.86542 20.82591 64.9152 67.2447 22.39534 -70.30588 -19.20385 1.05214 -0.96494 8.70835 -3.25662 -9.63742 3.21654 -4.30936 -15.23544 -2.32612 1.01261 6.7342 -5.85848 6.43603 5.24869 8.78031
0.00037 0.57901 0.00151 174.40895 0 -4.21385 6.44258 4.32368 0.39631 -27.90952 0.34328 2.67486 14.04283 -63.41601 -76.96554 21.04897 67.92166 -25.25828 -0.86492 21.41034 64.9149 66.63606 22.40627 -70.45423 -19.08232 1.06087 -0.90931 8.6206 -4.20517 -9.73725 3.2858 -4.36597 -14.34478 -2.29689 1.00309 6.68666 -5.87418 6.45167 5.25154 8.76795
0.00052 0.57899 0.00176 174.48495 0 -4.22528 6.47215 4.31254 0.39426 -28.04825 0.32649 2.66009 14.34978 -63.29734 -76.90892 20.94839 68.00603 -25.18604 -0.86455 22.11069 64.92891 65.90138 22.28428 -70.75324 -19.01694 1.14321 -0.85306 8.51163 -5.38913 -9.83688 3.35199 -4.45442 -13.20665 -2.26581 0.9945 6.6469 -5.88985 6.46432 5.25257 8.75384
0.00066 0.57897 0.00201 174.5613 0 -4.23766 6.50422 4.3013 0.3949 -28.19467 0.30419 2.64158 14.6413 -63.1631 -76.86847 20.84388 68.13132 -25.10006 -0.8645 22.74447 64.93272 65.2421 22.22396 -70.97967 -18.92887 1.19114 -0.80032 8.41638 -6.42883 -9.92966 3.41547 -4.52391 -12.21219 -2.23644 0.9868 6.60554 -5.90403 6.47775 5.25448 8.74065
0.0008 0.57895 0.00227 174.64773 0 -4.2449 6.54233 4.2854 0.39927 -28.35887 0.27099 2.61799 14.94949 -63.00695 -76.85027 20.72022 68.24397 -25.02022 -0.86226 23.43698 64.95306 64.50631 22.1581 -71.21641 -18.82626 1.24216 -0.73443 8.30411 -7.62493 -10.05093 3.49599 -4.61201 -11.08658 -2.20336 0.97363 6.55574 -5.92455 6.49356 5.25617 8.72697
0.00095 0.57894 0.00251 174.71137 0 -4.26285 6.5656 4.27968 0.39389 -28.47971 0.26467 2.60759 15.22921 -62.90617 -76.77368 20.64122 68.36712 -24.93327 -0.86534 24.03449 64.9412 63.9001 22.07245 -71.47627 -18.77055 1.30542 -0.69519 8.22204 -8.55222 -10.1138 3.54064 -4.66933 -10.17476 -2.17761 0.97197 6.52574 -5.93186 6.5038 5.25786 8.71382
